<?xml version="1.0" encoding="UTF-8"?>
<svg id="Layer_1" data-name="Layer 1" xmlns="http://www.w3.org/2000/svg" version="1.1" viewBox="0 0 518 229.7">
  <defs>
    <style>
      .cls-1 {
        fill: #fff;
        stroke: #bebebd;
        stroke-miterlimit: 22.9;
        stroke-width: 4px;
      }

      .cls-1, .cls-2 {
        fill-rule: evenodd;
      }

      .cls-2 {
        fill: #e6340d;
        stroke-width: 0px;
      }
    </style>
  </defs>
  <polygon class="cls-1" points="259 227.7 2 173.1 2 58.7 259 2 516 58.7 516 173.1 259 227.7"/>
  <path class="cls-2" d="M259,206L22.6,157.1v-81.4l236.4-52,236.4,52v81.4l-236.4,48.9h0ZM259,194.2l223.5-45.3v-62.3l-223.5-50.5L35.5,86.5v62.3l223.5,45.3Z"/>
  <polygon class="cls-2" points="48.1 140.1 48.1 120.8 64.1 120.8 64.1 126.7 81.8 130 81.8 87.3 99.1 82.9 99.1 150.9 48.1 140.1"/>
  <path class="cls-2" d="M127.4,156.6l-15.5-2.6v-31.4c0-30.6,30.8-57.2,62.1-57.2v100.4l-16-2.8v-25.5h-30.6v19.1h0ZM158.1,122.6v-33.5c-15,0-28.8,17.9-28.8,33.5h28.8Z"/>
  <polygon class="cls-2" points="192.3 170.2 192.3 61 249.2 48.4 249.2 67.2 210.9 75.2 210.9 156.6 235.8 160.7 235.8 130 222.7 130 222.7 112.3 252.6 112.3 252.6 181.3 192.3 170.2"/>
  <polygon class="cls-2" points="266 181.3 266 48.4 284.8 51.5 284.8 160.7 312.1 156.6 312.1 56.9 329.9 60.8 329.9 169.2 266 181.3"/>
  <path class="cls-2" d="M393.7,157.9l15.5-2.6v-31.4c0-30.6-30.8-57.2-62.1-57.2v100.4l16-2.8v-25.5h30.6v19.1h0ZM363.1,124v-33.5c15,0,28.8,17.9,28.8,33.5h-28.8Z"/>
  <path class="cls-2" d="M423.3,148.1v-68l49.2,10.3v35.3h-8l11.8,10.6-16.5,3.3-20.9-12.4v17.3l-15.7,3.6h0ZM439,112.5h17.5v-9l-17.5-3.1v12.1Z"/>
</svg>