<?xml version="1.0" encoding="utf-8"?>
<!-- Generator: Adobe Illustrator 25.0.1, SVG Export Plug-In . SVG Version: 6.00 Build 0)  -->
<svg version="1.0" id="Layer_1" xmlns="http://www.w3.org/2000/svg" xmlns:xlink="http://www.w3.org/1999/xlink" x="0px" y="0px"
	 viewBox="0 0 285.5 210.2" style="enable-background:new 0 0 285.5 210.2;" xml:space="preserve">
<style type="text/css">
	.st0{fill:#010102;}
	.st1{fill:#FFFF01;}
</style>
<path class="st0" d="M130.2,51.4c2.7-0.8,5.4,0.8,6.2,3.4c0.8,2.7-0.8,5.4-3.4,6.2c-2.7,0.8-5.4-0.8-6.2-3.4
	c-0.1-0.4-0.2-0.7-0.2-1.1C126.4,54.2,127.9,52,130.2,51.4 M152.6,51.3c2.7-0.6,5.4,1,6,3.7c0.6,2.7-1,5.4-3.7,6
	c-2.7,0.6-5.4-1-6-3.7c0-0.2-0.1-0.4-0.1-0.6C148.6,54.3,150.2,52,152.6,51.3 M110,56.9c1.6-0.7,3.5,0,4.2,1.6
	c0.7,1.6,0,3.5-1.6,4.2c-0.4,0.2-0.8,0.3-1.2,0.3c-1.8,0-3.2-1.3-3.3-3.1C108.1,58.7,108.8,57.5,110,56.9 M172.9,56.9
	c1.6-0.7,3.5,0.1,4.1,1.7s-0.1,3.5-1.7,4.1c-1,0.4-2.3,0.3-3.2-0.4c-1.4-1.1-1.6-3.1-0.6-4.4C172,57.5,172.4,57.2,172.9,56.9
	 M108.6,66.1c2.1,0,4.2,0,6.2,0c2.2,8.7,4.4,17.5,6.7,26.2c1.7-8.8,3.4-17.5,5.2-26.2c3.3,0,6.6-0.1,10,0c1.8,10.5,3.8,21,5.6,31.5
	c-2.1,0-4.1,0-6.2,0c-1.3-7.9-2.6-15.8-3.9-23.7c-0.1-0.6-0.3-1.3-0.4-1.9c-0.4,1.3-0.7,2.6-0.9,4c-1.4,7.2-2.8,14.4-4.2,21.6
	c-3.3,0-6.7,0-10,0C113.9,87.1,111.2,76.6,108.6,66.1 M148.8,66.1c3.3-0.1,6.6-0.1,10,0c1.7,8.6,3.3,17.2,5.1,25.8
	c0.5-1.2,0.8-2.4,1.1-3.6c1.8-7.4,3.7-14.8,5.6-22.2c2.1,0,4.1-0.1,6.2,0c-2.6,10.5-5.3,20.9-8,31.4c-3.3,0-6.7,0-10,0
	c-1.4-7.2-2.8-14.4-4.2-21.6c-0.2-1.3-0.5-2.6-0.9-3.9c-0.3,1.1-0.6,2.3-0.7,3.5c-1.2,7.3-2.4,14.7-3.7,22.1c-2.1,0-4.1,0-6.2,0
	C144.9,87,146.9,76.6,148.8,66.1 M116.6,100.6c17.3,0,34.7,0,52,0c0,1.8,0,3.6,0,5.4c-17.3,0-34.7,0-52,0
	C116.6,104.2,116.6,102.4,116.6,100.6 M116.6,109.1c17.3-0.1,34.6-0.1,51.9,0c0,1.8,0,3.6,0,5.4h-51.9
	C116.6,112.7,116.6,110.9,116.6,109.1 M63.8,123.3c1.3-0.1,2.6-0.2,3.9-0.1h161.5c2.1-0.1,4.1,1.1,5,3c0.6,1.3,0.8,2.8,0.4,4.2
	c-1.8,7.1-3.6,14.2-5.5,21.3c-1,3.9-4.3,6.8-8.4,7.2H56.2c-2.2,0-4.2-1.4-5-3.4c-0.6-1.6-0.6-3.4,0-5c1.7-6.7,3.4-13.4,5.1-20.1
	C57.2,126.8,60.1,124.1,63.8,123.3 M63.8,125.5c-2.7,0.7-4.7,2.9-5.3,5.6c-1.7,7-3.5,13.9-5.3,20.9c-0.5,1.3-0.2,2.8,0.7,3.9
	c0.7,0.7,1.7,1.1,2.7,1h162.1c1.3,0.1,2.7,0,4-0.4c2.2-0.9,3.9-2.8,4.5-5.2c1.8-6.9,3.5-13.9,5.3-20.8c0.5-1.3,0.3-2.8-0.6-4
	c-0.7-0.8-1.8-1.2-2.9-1.1H65.2C64.7,125.4,64.3,125.5,63.8,125.5 M66.9,128c2.3,0,4.7,0,7,0c4.9,7.8,9.6,15.7,14.5,23.5
	c2.2-7.8,4.4-15.7,6.6-23.5c1.4,0,2.8,0,4.2,0c-2.2,7.8-4.4,15.7-6.6,23.5c-0.3,0.8-0.3,1.7-0.8,2.3c-2.3,0.1-4.5,0-6.8,0
	c-4-6.5-8.1-13-12.1-19.5c-0.7-1.3-1.5-2.6-2.4-3.8c-2,7.4-4.1,14.8-6.2,22.2c-0.2,0.4-0.1,0.9-0.6,1.1c-1.3,0.1-2.7,0-4,0
	C62.1,145.2,64.5,136.6,66.9,128 M114.3,128c3.5-0.3,7-0.3,10.5-0.1c2.6,0.2,5.2,0.3,7.5,1.5c1.1,0.7,1.7,1.9,1.6,3.2
	c0,3-0.5,6-1.5,8.9c-1,3.2-2.1,6.6-4.2,9.3c-1.4,1.8-3.7,2.4-5.9,2.8c-4,0.6-8,0.8-12,0.6c-2.7,0-5.5-0.3-8.1-0.9
	c-1.1-0.3-2.3-0.8-2.8-1.9c-0.5-1.3-0.6-2.7-0.4-4.1c0.6-3.7,1.4-7.3,2.6-10.8c0.7-2.7,2.4-5,4.7-6.5
	C108.9,128.7,111.6,128.1,114.3,128 M113,130.4c-1.3,0.1-2.6,0.4-3.9,0.8c-1,0.6-1.7,1.5-2.1,2.5c-1.2,2.8-2.2,5.7-2.9,8.7
	c-0.7,2.2-1,4.5-1,6.9c0,0.7,0.6,1.3,1.3,1.5c2,0.5,4.1,0.8,6.1,0.8c3.4,0.1,6.8,0,10.2-0.3c1.2-0.1,2.3-0.4,3.4-0.8
	c0.9-0.6,1.7-1.5,2.1-2.6c1.3-3.2,2.4-6.5,3.2-9.8c0.5-1.5,0.8-3,0.8-4.6c0-1-0.5-2-1.5-2.4c-1.6-0.5-3.2-0.8-4.9-0.8
	C120.2,130.1,116.6,130.1,113,130.4 M141.1,128c5.1,0,10.1,0,15.2,0c3-0.1,5.9,0.1,8.9,0.7c1.2,0.2,2.2,1.2,2.4,2.4
	c0.2,2-0.2,3.9-1.2,5.7c-1.3,1.9-3.2,3.2-5.4,3.6c1.7,0.5,3.7,1.1,4.3,3c0.6,2.4-0.5,4.9-1.9,6.9c-2.1,3-6.1,3.5-9.5,3.7
	c-6.6,0-13.3,0-19.9,0C136.3,145.2,138.7,136.6,141.1,128 M144.7,130.4c-0.9,3-1.7,5.9-2.5,8.9c4.1,0,8.1,0,12.2,0
	c2,0.1,4.1-0.2,6-0.8c1.8-0.9,2.6-3,2.9-4.8c0.1-0.9,0.2-2-0.7-2.6c-1.4-0.5-3-0.7-4.5-0.7C153.6,130.4,149.1,130.4,144.7,130.4
	 M141.5,141.8c-0.9,3.2-1.8,6.4-2.7,9.6c5.1,0,10.2,0,15.3-0.1c1.9-0.2,4.3-0.2,5.6-1.9c1.1-1.6,1.7-3.6,1.5-5.6
	c0-0.6-0.5-1.2-1.1-1.4c-1.6-0.4-3.2-0.6-4.8-0.6C150.7,141.8,146.1,141.8,141.5,141.8 M176,128c1.4,0,2.8,0,4.2,0
	c-2.1,7.7-4.3,15.4-6.4,23.1c6.5,0.1,12.9,0,19.4,0c-0.2,0.9-0.5,1.8-0.8,2.7c-7.9,0-15.8,0-23.6,0C171.2,145.2,173.6,136.6,176,128
	 M201.9,128c8.1-0.1,16.2,0,24.2,0c-0.2,0.8-0.4,1.7-0.7,2.5c-6.7,0-13.3,0-20,0c-0.8,3-1.6,5.9-2.4,8.8c6.4,0,12.8,0,19.1,0
	c-0.3,0.8-0.3,1.8-0.9,2.4c-6.3,0.1-12.7,0-19,0c-0.8,3.2-1.8,6.4-2.7,9.6c6.7,0,13.3,0,20,0c-0.2,0.8-0.5,1.6-0.7,2.5
	c-8.1,0-16.1,0-24.2,0C197.1,145.1,199.6,136.5,201.9,128L201.9,128z"/>
<path class="st1" d="M63.8,125.5c0.5-0.1,0.9-0.1,1.4-0.1h163.7c1.1-0.1,2.2,0.3,2.9,1.1c0.8,1.2,1,2.7,0.6,4
	c-1.8,6.9-3.6,13.9-5.3,20.8c-0.6,2.3-2.2,4.3-4.5,5.2c-1.3,0.4-2.7,0.5-4,0.4H56.5c-1,0.1-2-0.3-2.7-1c-0.9-1.1-1.2-2.6-0.7-3.9
	c1.8-7,3.5-13.9,5.3-20.9C59.1,128.4,61.1,126.3,63.8,125.5 M66.9,128c-2.4,8.6-4.8,17.2-7.2,25.8c1.3,0,2.7,0.1,4,0
	c0.4-0.2,0.4-0.7,0.6-1.1c2.1-7.4,4.2-14.8,6.2-22.2c0.9,1.2,1.7,2.5,2.4,3.8c4,6.5,8.1,13,12.1,19.5c2.3,0,4.5,0,6.8,0
	c0.6-0.6,0.6-1.6,0.8-2.3c2.2-7.9,4.4-15.7,6.6-23.5c-1.4,0-2.8,0-4.2,0c-2.2,7.8-4.4,15.7-6.6,23.5c-4.8-7.8-9.6-15.7-14.5-23.5
	C71.5,128,69.2,128,66.9,128 M114.2,128c-2.7,0.1-5.3,0.8-7.8,1.9c-2.3,1.4-4,3.7-4.7,6.4c-1.2,3.5-2.1,7.2-2.6,10.8
	c-0.2,1.4-0.1,2.8,0.4,4.1c0.5,1.1,1.7,1.5,2.8,1.9c2.7,0.6,5.4,0.9,8.1,0.9c4,0.1,8-0.1,12-0.6c2.1-0.4,4.5-1,5.9-2.8
	c2.1-2.7,3.2-6,4.2-9.3c1-2.9,1.5-5.9,1.5-8.9c0.1-1.3-0.5-2.5-1.6-3.2c-2.3-1.2-5-1.3-7.5-1.5C121.3,127.6,117.8,127.7,114.2,128
	 M141.1,128c-2.4,8.6-4.8,17.2-7.2,25.8c6.6,0,13.3,0.1,19.9,0c3.4-0.1,7.4-0.7,9.5-3.7c1.3-2,2.4-4.5,1.9-6.9
	c-0.5-1.9-2.6-2.5-4.3-3c2.2-0.4,4.2-1.7,5.4-3.6c1-1.7,1.4-3.7,1.2-5.7c-0.2-1.2-1.2-2.1-2.4-2.4c-2.9-0.6-5.9-0.8-8.9-0.7
	C151.3,127.9,146.1,127.9,141.1,128 M176.1,127.9c-2.4,8.6-4.8,17.2-7.2,25.8c7.9,0,15.8,0,23.6,0c0.3-0.9,0.5-1.8,0.8-2.7
	c-6.5,0-12.9,0.1-19.4,0c2.2-7.7,4.3-15.4,6.4-23.1C178.9,128,177.5,128,176.1,127.9 M202,128c-2.4,8.6-4.8,17.2-7.2,25.8
	c8.1,0.1,16.1,0,24.2,0c0.3-0.8,0.5-1.6,0.7-2.5c-6.7,0-13.3,0-20,0c0.9-3.2,1.8-6.4,2.7-9.6c6.3-0.1,12.7,0,19,0
	c0.6-0.6,0.6-1.6,0.9-2.4c-6.4,0-12.8,0-19.1,0c0.8-2.9,1.6-5.9,2.4-8.8c6.7,0,13.3,0,20,0c0.2-0.8,0.5-1.6,0.7-2.5
	C218.2,128,210.1,128,202,128 M113.1,130.4c3.6-0.3,7.2-0.3,10.8-0.2c1.7,0,3.3,0.3,4.9,0.8c0.9,0.4,1.5,1.3,1.5,2.3
	c0,1.6-0.3,3.1-0.8,4.6c-0.8,3.4-1.9,6.6-3.2,9.8c-0.4,1.1-1.1,2-2.1,2.6c-1.1,0.4-2.2,0.7-3.4,0.8c-3.4,0.3-6.8,0.4-10.2,0.3
	c-2.1,0-4.1-0.3-6.1-0.8c-0.7-0.2-1.2-0.8-1.3-1.5c0-2.3,0.3-4.6,1-6.9c0.7-3,1.7-5.9,2.9-8.7c0.4-1.1,1.2-1.9,2.1-2.5
	C110.4,130.8,111.7,130.5,113.1,130.4 M144.7,130.4c4.5,0,9,0,13.5,0c1.5-0.1,3,0.2,4.5,0.7c0.9,0.5,0.8,1.7,0.7,2.6
	c-0.4,1.9-1.1,3.9-2.9,4.8c-1.9,0.6-4,0.9-6,0.8c-4.1,0-8.1,0-12.2,0C143,136.3,143.9,133.4,144.7,130.4 M141.6,141.8
	c4.6,0,9.2,0,13.8,0c1.6,0,3.2,0.2,4.8,0.6c0.6,0.2,1.1,0.7,1.1,1.4c0.1,2-0.4,4-1.5,5.6c-1.3,1.7-3.7,1.7-5.6,1.9
	c-5.1,0.1-10.2,0.1-15.3,0.1C139.7,148.2,140.6,145,141.6,141.8L141.6,141.8z"/>
</svg>
