<?xml version="1.0" encoding="utf-8"?>

<svg version="1.0" id="Layer_1" xmlns="http://www.w3.org/2000/svg" xmlns:xlink="http://www.w3.org/1999/xlink" x="0px" y="0px"
	 viewBox="0 0 393.45 112.99" style="enable-background:new 0 0 393.45 112.99;" xml:space="preserve">
<style type="text/css">
	.st0{fill:#E30613;}
	.st1{fill:#FFFFFF;}
</style>
<g>
	<g>
		<path d="M118.42,92.67c0.22,0.21,0.44,0.71,0.67,1.52l2.71,9.9c0.03,0.14-0.02,0.22-0.16,0.22h-0.9c-0.08,0-0.14-0.06-0.17-0.21
			l-1.03-3.66h-4.98l-1.05,3.66c-0.05,0.14-0.11,0.21-0.19,0.21h-0.9c-0.14,0-0.19-0.08-0.16-0.22l2.81-9.9
			c0.22-0.81,0.44-1.3,0.67-1.51c0.22-0.21,0.65-0.32,1.3-0.32C117.74,92.37,118.2,92.47,118.42,92.67z M116.53,93.61
			c-0.08,0.11-0.19,0.4-0.32,0.87l-1.38,4.89h4.41l-1.32-4.89c-0.13-0.48-0.24-0.76-0.33-0.87c-0.08-0.11-0.27-0.17-0.57-0.17
			C116.79,93.44,116.61,93.5,116.53,93.61z"/>
		<path d="M132.07,92.45c0.14,0,0.21,0.06,0.21,0.19v5.76c0,2.47-0.21,3.84-0.92,4.79c-0.71,0.94-1.78,1.21-3.66,1.21
			c-1.89,0-2.95-0.27-3.66-1.21c-0.71-0.95-0.92-2.32-0.92-4.79v-5.76c0-0.13,0.06-0.19,0.19-0.19h0.81c0.14,0,0.21,0.06,0.21,0.19
			v5.76c0,2.03,0.16,3.16,0.68,3.93c0.52,0.78,1.3,1,2.7,1c1.4,0,2.17-0.22,2.7-1c0.52-0.78,0.68-1.9,0.68-3.93v-5.76
			c0-0.17,0.02-0.19,0.19-0.19H132.07z"/>
		<path d="M142.63,92.45c0.13,0,0.19,0.06,0.19,0.19v0.67c0,0.14-0.06,0.21-0.19,0.21h-3.73v10.6c0,0.14-0.06,0.21-0.21,0.21h-0.79
			c-0.14,0-0.21-0.06-0.21-0.21v-10.6h-3.73c-0.14,0-0.21-0.06-0.21-0.21v-0.67c0-0.13,0.06-0.19,0.21-0.19H142.63z"/>
		<path d="M151.31,93.15c1.11,0.89,1.4,2.43,1.41,5.25c0,2.41-0.22,3.78-0.94,4.74c-0.71,0.95-1.82,1.25-3.78,1.25
			c-1.95,0-3.05-0.3-3.76-1.25c-0.71-0.97-0.94-2.33-0.94-4.74c0-1.92,0.16-3.16,0.55-4.12c0.65-1.44,1.86-1.86,4.14-1.9
			C149.58,92.37,150.57,92.63,151.31,93.15z M148.01,93.44c-0.75,0-1.35,0.08-1.79,0.22c-0.87,0.3-1.38,1.14-1.55,2.33
			c-0.08,0.59-0.13,1.4-0.13,2.41s0.05,1.82,0.13,2.41c0.17,1.16,0.68,2.01,1.55,2.32c0.44,0.14,1.05,0.21,1.79,0.21
			c0.75,0,1.35-0.06,1.79-0.21c0.89-0.3,1.4-1.16,1.57-2.32c0.08-0.59,0.13-1.4,0.13-2.41s-0.05-1.82-0.13-2.41
			c-0.17-1.19-0.68-2.03-1.57-2.33C149.36,93.51,148.76,93.44,148.01,93.44z"/>
		<path d="M166.2,92.45c0.14,0,0.22,0.08,0.24,0.22l0.98,11.44c0,0.14-0.06,0.21-0.21,0.21h-0.81c-0.13,0-0.19-0.06-0.21-0.21
			l-0.76-9.66l-3.68,9.31c-0.05,0.13-0.14,0.19-0.29,0.19h-0.86c-0.14,0-0.24-0.06-0.29-0.19l-3.68-9.31l-0.76,9.66
			c-0.02,0.14-0.08,0.21-0.21,0.21h-0.81c-0.14,0-0.21-0.06-0.21-0.21l0.98-11.44c0.02-0.14,0.1-0.22,0.24-0.22h0.89
			c0.32,0,0.4,0.13,0.59,0.59l3.68,9.53l3.68-9.53c0.19-0.46,0.27-0.59,0.59-0.59H166.2z"/>
		<path d="M177.35,93.15c1.11,0.89,1.4,2.43,1.41,5.25c0,2.41-0.22,3.78-0.94,4.74c-0.71,0.95-1.82,1.25-3.78,1.25
			c-1.95,0-3.05-0.3-3.76-1.25c-0.71-0.97-0.94-2.33-0.94-4.74c0-1.92,0.16-3.16,0.55-4.12c0.65-1.44,1.86-1.86,4.14-1.9
			C175.62,92.37,176.61,92.63,177.35,93.15z M174.05,93.44c-0.75,0-1.35,0.08-1.79,0.22c-0.87,0.3-1.38,1.14-1.55,2.33
			c-0.08,0.59-0.13,1.4-0.13,2.41s0.05,1.82,0.13,2.41c0.17,1.16,0.68,2.01,1.55,2.32c0.44,0.14,1.05,0.21,1.79,0.21
			s1.35-0.06,1.79-0.21c0.89-0.3,1.4-1.16,1.57-2.32c0.08-0.59,0.13-1.4,0.13-2.41s-0.05-1.82-0.13-2.41
			c-0.17-1.19-0.68-2.03-1.57-2.33C175.4,93.51,174.8,93.44,174.05,93.44z"/>
		<path d="M188.12,92.45c0.13,0,0.19,0.06,0.19,0.19v0.67c0,0.14-0.06,0.21-0.19,0.21h-3.73v10.6c0,0.14-0.06,0.21-0.21,0.21h-0.79
			c-0.14,0-0.21-0.06-0.21-0.21v-10.6h-3.73c-0.14,0-0.21-0.06-0.21-0.21v-0.67c0-0.13,0.06-0.19,0.21-0.19H188.12z"/>
		<path d="M190.92,92.45c0.14,0,0.21,0.06,0.21,0.19v11.47c0,0.14-0.06,0.21-0.21,0.21h-0.81c-0.13,0-0.19-0.06-0.19-0.21V92.64
			c0-0.13,0.06-0.19,0.19-0.19H190.92z"/>
		<path d="M194.06,92.45c0.11,0,0.13,0.02,0.17,0.21l2.7,9.63c0.25,0.94,0.32,1.05,0.68,1.05c0.24,0,0.4-0.06,0.48-0.17
			c0.08-0.11,0.19-0.41,0.3-0.87l2.62-9.63c0.02-0.14,0.08-0.21,0.17-0.21h0.9c0.17,0,0.19,0.03,0.17,0.21l-2.71,9.91
			c-0.22,0.83-0.43,1.33-0.62,1.54c-0.19,0.19-0.63,0.29-1.32,0.29c-0.62,0-1.02-0.1-1.21-0.29c-0.19-0.21-0.4-0.71-0.63-1.54
			l-2.79-9.91c-0.05-0.17-0.02-0.21,0.16-0.21H194.06z"/>
		<path d="M211.58,92.45c0.14,0,0.21,0.06,0.21,0.19v0.67c0,0.14-0.06,0.21-0.21,0.21h-6.19v4.55h5.62c0.14,0,0.21,0.06,0.21,0.19
			v0.67c0,0.14-0.06,0.21-0.21,0.21h-5.62v4.12h6.19c0.14,0,0.21,0.06,0.21,0.19v0.67c0,0.14-0.06,0.21-0.21,0.21h-7.17
			c-0.16,0-0.24-0.08-0.24-0.24V92.69c0-0.16,0.08-0.24,0.24-0.24H211.58z"/>
		<path d="M224.27,92.53c0.11,0.02,0.17,0.06,0.17,0.17v0.54c0,0.13-0.05,0.19-0.16,0.19h-3.51c-1.59,0-2.33,0.48-2.33,1.6v0.25
			c0,0.94,0.27,1.36,1.3,1.79l3.62,1.52c1.33,0.59,1.7,1.49,1.7,2.68v0.48c0,0.95-0.35,1.62-0.81,1.98
			c-0.24,0.17-0.54,0.32-0.92,0.43c-0.76,0.19-1.32,0.22-2.27,0.22c-1.48,0-2.76-0.06-3.85-0.17c-0.11,0-0.16-0.06-0.16-0.19v-0.52
			c0-0.11,0.06-0.17,0.19-0.17h4.2c1.59,0,2.41-0.4,2.41-1.59v-0.35c0-0.84-0.27-1.46-1.24-1.89l-3.89-1.6
			c-0.41-0.17-0.73-0.4-0.97-0.67c-0.46-0.57-0.54-1.08-0.54-1.9v-0.35c0-0.89,0.3-1.52,0.75-1.9c0.79-0.59,1.84-0.71,3.2-0.71
			C222.11,92.37,223.14,92.42,224.27,92.53z"/>
		<path d="M233.57,92.75c1.21,0.44,1.51,1.4,1.57,3.38c0,1.73-0.32,2.57-1.05,3.13c-0.21,0.16-0.52,0.29-0.92,0.36
			c-0.78,0.17-1.49,0.21-2.82,0.21h-2v4.28c0,0.14-0.06,0.21-0.21,0.21h-0.81c-0.14,0-0.21-0.06-0.21-0.21V92.66
			c0-0.13,0.06-0.19,0.21-0.21c0.84-0.05,1.84-0.08,3.01-0.08C231.92,92.37,232.76,92.45,233.57,92.75z M228.35,93.44v5.31h1.92
			c0.48,0,0.84,0,1.11-0.02c0.56-0.02,1.25-0.08,1.55-0.22c0.3-0.14,0.67-0.38,0.78-0.76c0.13-0.38,0.22-0.89,0.22-1.6
			c0-1.25-0.14-1.89-0.78-2.27c-0.3-0.21-0.67-0.32-1.08-0.37c-0.41-0.05-1.02-0.08-1.81-0.08H228.35z"/>
		<path d="M241.15,92.67c0.22,0.21,0.44,0.71,0.67,1.52l2.71,9.9c0.03,0.14-0.02,0.22-0.16,0.22h-0.9c-0.08,0-0.14-0.06-0.17-0.21
			l-1.03-3.66h-4.98l-1.05,3.66c-0.05,0.14-0.11,0.21-0.19,0.21h-0.9c-0.14,0-0.19-0.08-0.16-0.22l2.81-9.9
			c0.22-0.81,0.44-1.3,0.67-1.51c0.22-0.21,0.65-0.32,1.3-0.32C240.47,92.37,240.93,92.47,241.15,92.67z M239.26,93.61
			c-0.08,0.11-0.19,0.4-0.32,0.87l-1.38,4.89h4.41l-1.32-4.89c-0.13-0.48-0.24-0.76-0.33-0.87c-0.08-0.11-0.27-0.17-0.57-0.17
			C239.52,93.44,239.34,93.5,239.26,93.61z"/>
		<path d="M252.85,92.75c1.21,0.44,1.51,1.4,1.57,3.38c0,1.28-0.19,2.17-0.59,2.68c-0.38,0.49-1.08,0.81-2.08,0.92l2.71,4.31
			c0.11,0.14,0.05,0.27-0.16,0.27h-0.7c-0.22,0-0.4-0.1-0.54-0.29l-2.67-4.22l-2.78,0.02v4.28c0,0.14-0.06,0.21-0.21,0.21h-0.81
			c-0.14,0-0.21-0.06-0.21-0.21V92.66c0-0.13,0.06-0.19,0.21-0.21c0.84-0.05,1.84-0.08,3.01-0.08
			C251.2,92.37,252.04,92.45,252.85,92.75z M247.63,93.44v5.31h1.92c0.48,0,0.84,0,1.11-0.02c0.56-0.02,1.25-0.08,1.55-0.22
			c0.3-0.14,0.67-0.38,0.78-0.76c0.13-0.38,0.22-0.89,0.22-1.6c0-1.25-0.14-1.89-0.78-2.27c-0.3-0.21-0.67-0.32-1.08-0.37
			c-0.41-0.05-1.02-0.08-1.81-0.08H247.63z"/>
		<path d="M264.05,92.45c0.14,0,0.21,0.06,0.21,0.19v0.67c0,0.14-0.06,0.21-0.21,0.21h-6.19v4.55h5.62c0.14,0,0.21,0.06,0.21,0.19
			v0.67c0,0.14-0.06,0.21-0.21,0.21h-5.62v4.12h6.19c0.14,0,0.21,0.06,0.21,0.19v0.67c0,0.14-0.06,0.21-0.21,0.21h-7.17
			c-0.16,0-0.24-0.08-0.24-0.24V92.69c0-0.16,0.08-0.24,0.24-0.24H264.05z"/>
		<path d="M273.01,92.53c0.11,0.02,0.17,0.06,0.17,0.17v0.54c0,0.13-0.05,0.19-0.16,0.19h-3.51c-1.59,0-2.33,0.48-2.33,1.6v0.25
			c0,0.94,0.27,1.36,1.3,1.79l3.62,1.52c1.33,0.59,1.7,1.49,1.7,2.68v0.48c0,0.95-0.35,1.62-0.81,1.98
			c-0.24,0.17-0.54,0.32-0.92,0.43c-0.76,0.19-1.32,0.22-2.27,0.22c-1.48,0-2.76-0.06-3.85-0.17c-0.11,0-0.16-0.06-0.16-0.19v-0.52
			c0-0.11,0.06-0.17,0.19-0.17h4.2c1.59,0,2.41-0.4,2.41-1.59v-0.35c0-0.84-0.27-1.46-1.24-1.89l-3.89-1.6
			c-0.41-0.17-0.73-0.4-0.97-0.67c-0.46-0.57-0.54-1.08-0.54-1.9v-0.35c0-0.89,0.3-1.52,0.75-1.9c0.79-0.59,1.84-0.71,3.2-0.71
			C270.85,92.37,271.89,92.42,273.01,92.53z"/>
		<path d="M287.83,93.74c0.71,0.9,1.06,2.46,1.06,4.63c0,2.19-0.35,3.74-1.06,4.66c-0.71,0.9-1.95,1.36-3.73,1.36
			c-1.76,0-3.19-0.03-4.3-0.08c-0.14-0.02-0.21-0.08-0.21-0.21V92.66c0-0.13,0.06-0.19,0.21-0.21c0.84-0.05,2.27-0.08,4.3-0.08
			C285.88,92.37,287.12,92.83,287.83,93.74z M280.82,93.44v9.9h3.28c1.33,0,2.27-0.38,2.79-1.13c0.52-0.75,0.79-2.03,0.79-3.84
			c0-1.79-0.28-3.06-0.84-3.81c-0.56-0.75-1.54-1.13-2.93-1.13H280.82z"/>
		<path d="M292.23,92.45c0.14,0,0.21,0.06,0.21,0.19v11.47c0,0.14-0.06,0.21-0.21,0.21h-0.81c-0.13,0-0.19-0.06-0.19-0.21V92.64
			c0-0.13,0.06-0.19,0.19-0.19H292.23z"/>
		<path d="M301.78,92.53c0.11,0.02,0.17,0.06,0.17,0.17v0.54c0,0.13-0.05,0.19-0.16,0.19h-3.51c-1.59,0-2.33,0.48-2.33,1.6v0.25
			c0,0.94,0.27,1.36,1.3,1.79l3.62,1.52c1.33,0.59,1.7,1.49,1.7,2.68v0.48c0,0.95-0.35,1.62-0.81,1.98
			c-0.24,0.17-0.54,0.32-0.92,0.43c-0.76,0.19-1.32,0.22-2.27,0.22c-1.48,0-2.76-0.06-3.85-0.17c-0.11,0-0.16-0.06-0.16-0.19v-0.52
			c0-0.11,0.06-0.17,0.19-0.17h4.2c1.59,0,2.41-0.4,2.41-1.59v-0.35c0-0.84-0.27-1.46-1.24-1.89l-3.89-1.6
			c-0.41-0.17-0.73-0.4-0.97-0.67c-0.46-0.57-0.54-1.08-0.54-1.9v-0.35c0-0.89,0.3-1.52,0.75-1.9c0.79-0.59,1.84-0.71,3.2-0.71
			C299.62,92.37,300.65,92.42,301.78,92.53z"/>
		<path d="M311.82,92.45c0.13,0,0.19,0.06,0.19,0.19v0.67c0,0.14-0.06,0.21-0.19,0.21h-3.73v10.6c0,0.14-0.06,0.21-0.21,0.21h-0.79
			c-0.14,0-0.21-0.06-0.21-0.21v-10.6h-3.73c-0.14,0-0.21-0.06-0.21-0.21v-0.67c0-0.13,0.06-0.19,0.21-0.19H311.82z"/>
		<path d="M320.06,92.75c1.21,0.44,1.51,1.4,1.57,3.38c0,1.28-0.19,2.17-0.59,2.68c-0.38,0.49-1.08,0.81-2.08,0.92l2.71,4.31
			c0.11,0.14,0.05,0.27-0.16,0.27h-0.7c-0.22,0-0.4-0.1-0.54-0.29l-2.67-4.22l-2.78,0.02v4.28c0,0.14-0.06,0.21-0.21,0.21h-0.81
			c-0.14,0-0.21-0.06-0.21-0.21V92.66c0-0.13,0.06-0.19,0.21-0.21c0.84-0.05,1.84-0.08,3.01-0.08
			C318.41,92.37,319.25,92.45,320.06,92.75z M314.84,93.44v5.31h1.92c0.48,0,0.84,0,1.11-0.02c0.56-0.02,1.25-0.08,1.55-0.22
			c0.3-0.14,0.67-0.38,0.78-0.76c0.13-0.38,0.22-0.89,0.22-1.6c0-1.25-0.14-1.89-0.78-2.27c-0.3-0.21-0.67-0.32-1.08-0.37
			c-0.41-0.05-1.02-0.08-1.81-0.08H314.84z"/>
		<path d="M324.85,92.45c0.14,0,0.21,0.06,0.21,0.19v11.47c0,0.14-0.06,0.21-0.21,0.21h-0.81c-0.13,0-0.19-0.06-0.19-0.21V92.64
			c0-0.13,0.06-0.19,0.19-0.19H324.85z"/>
		<path d="M334.99,93.09c0.65,0.48,0.98,1.33,0.98,2.57c0,1.54-0.44,2.41-1.33,2.63v0.05c1.09,0.21,1.65,1.16,1.65,2.84
			c0,1.25-0.32,2.09-0.95,2.55c-0.63,0.44-1.6,0.67-2.9,0.67c-1.82,0-3.3-0.03-4.41-0.08c-0.14-0.02-0.21-0.08-0.21-0.21V92.66
			c0-0.13,0.06-0.19,0.21-0.21c0.84-0.05,2.13-0.08,3.89-0.08C333.31,92.37,334.34,92.61,334.99,93.09z M329.04,93.44v4.43h2.52
			c1.06,0,1.52-0.03,2.11-0.17c0.84-0.24,1.03-0.75,1.09-1.95c0-0.9-0.22-1.52-0.68-1.82c-0.46-0.32-1.21-0.48-2.25-0.48H329.04z
			 M329.04,98.88v4.46h3.46c1.82,0,2.59-0.46,2.59-2.16c0-1.79-0.78-2.3-2.43-2.3H329.04z"/>
		<path d="M347.4,92.45c0.14,0,0.21,0.06,0.21,0.19v5.76c0,2.47-0.21,3.84-0.92,4.79c-0.71,0.94-1.78,1.21-3.66,1.21
			c-1.89,0-2.95-0.27-3.66-1.21c-0.71-0.95-0.92-2.32-0.92-4.79v-5.76c0-0.13,0.06-0.19,0.19-0.19h0.81c0.14,0,0.21,0.06,0.21,0.19
			v5.76c0,2.03,0.16,3.16,0.68,3.93c0.52,0.78,1.3,1,2.7,1c1.4,0,2.17-0.22,2.7-1c0.52-0.78,0.68-1.9,0.68-3.93v-5.76
			c0-0.17,0.02-0.19,0.19-0.19H347.4z"/>
		<path d="M357.96,92.45c0.13,0,0.19,0.06,0.19,0.19v0.67c0,0.14-0.06,0.21-0.19,0.21h-3.73v10.6c0,0.14-0.06,0.21-0.21,0.21h-0.79
			c-0.14,0-0.21-0.06-0.21-0.21v-10.6h-3.73c-0.14,0-0.21-0.06-0.21-0.21v-0.67c0-0.13,0.06-0.19,0.21-0.19H357.96z"/>
		<path d="M366.64,93.15c1.11,0.89,1.4,2.43,1.41,5.25c0,2.41-0.22,3.78-0.94,4.74c-0.71,0.95-1.82,1.25-3.78,1.25
			c-1.95,0-3.05-0.3-3.76-1.25c-0.71-0.97-0.94-2.33-0.94-4.74c0-1.92,0.16-3.16,0.56-4.12c0.65-1.44,1.86-1.86,4.14-1.9
			C364.91,92.37,365.9,92.63,366.64,93.15z M363.34,93.44c-0.75,0-1.35,0.08-1.79,0.22c-0.87,0.3-1.38,1.14-1.55,2.33
			c-0.08,0.59-0.13,1.4-0.13,2.41s0.05,1.82,0.13,2.41c0.17,1.16,0.68,2.01,1.55,2.32c0.44,0.14,1.05,0.21,1.79,0.21
			c0.74,0,1.35-0.06,1.79-0.21c0.89-0.3,1.4-1.16,1.57-2.32c0.08-0.59,0.13-1.4,0.13-2.41s-0.05-1.82-0.13-2.41
			c-0.17-1.19-0.68-2.03-1.57-2.33C364.69,93.51,364.09,93.44,363.34,93.44z"/>
		<path d="M376.86,92.75c1.21,0.44,1.51,1.4,1.57,3.38c0,1.28-0.19,2.17-0.59,2.68c-0.38,0.49-1.08,0.81-2.08,0.92l2.71,4.31
			c0.11,0.14,0.05,0.27-0.16,0.27h-0.7c-0.22,0-0.4-0.1-0.54-0.29l-2.67-4.22l-2.78,0.02v4.28c0,0.14-0.06,0.21-0.21,0.21h-0.81
			c-0.14,0-0.21-0.06-0.21-0.21V92.66c0-0.13,0.06-0.19,0.21-0.21c0.84-0.05,1.84-0.08,3.01-0.08
			C375.21,92.37,376.05,92.45,376.86,92.75z M371.64,93.44v5.31h1.92c0.48,0,0.84,0,1.11-0.02c0.56-0.02,1.25-0.08,1.55-0.22
			c0.3-0.14,0.67-0.38,0.78-0.76c0.13-0.38,0.22-0.89,0.22-1.6c0-1.25-0.14-1.89-0.78-2.27c-0.3-0.21-0.67-0.32-1.08-0.37
			c-0.41-0.05-1.02-0.08-1.81-0.08H371.64z"/>
	</g>
	<path d="M373.51,46.59c1.26,0.69,2.24,1.65,2.94,2.82c1.4,2.41,1.61,4.27,1.61,7.65v23.56c0,1.45-0.49,2.07-1.82,2.27
		c-5.05,0.96-10.44,1.45-16.26,1.45c-2.31,0-4.2-0.07-5.54-0.14c-2.59-0.07-6.45-0.55-8.2-1.59c-2.73-1.65-5.12-4.82-4.84-10.95
		c0.07-5.03,1.33-8.13,4.21-9.78c2.87-1.72,6.1-2.14,11.91-2.14l6.66-0.07v-0.34c0-2.27-1.4-3.45-4.21-3.45h-14.72
		c-0.63,0-0.91-0.35-0.91-1.03v-8.33c0-0.62,0.28-0.97,0.91-1.1c4.13-0.83,9.04-1.24,14.72-1.24
		C366.44,44.18,370.99,45.21,373.51,46.59z M364.19,67.53h-5.19c-3.15,0-3.93,0.89-3.93,3.1c0,2.21,0.84,2.89,4,2.89
		c2.03,0,3.78-0.14,5.12-0.48V67.53z"/>
	<path d="M337.1,45.42c0.77,0.21,1.19,0.62,1.19,1.1v7.37c0,0.76-0.42,1.1-1.26,1.1h-12.4c-2.03,0-3.08,0.48-3.08,1.45v0.48
		c0,0.62,0.77,1.17,2.38,1.65l8.62,2.62c5.12,1.59,7.64,5.24,7.64,10.95v1.31c0,7.72-6.31,10.88-15.56,10.88
		c-6.17,0-11.56-0.21-16.19-0.69c-0.91,0-1.19-0.21-1.19-1.03v-8.06c0-0.76,0.42-1.1,1.26-1.1h15.77c1.89,0,2.38-0.28,2.38-1.1
		v-0.35c0-0.62-1.19-1.31-3.64-2.07l-7.43-2.27c-5.05-1.58-7.57-5.24-7.57-11.09v-1.17c0-7.44,5.33-11.23,17.59-11.23
		C329.67,44.18,333.53,44.59,337.1,45.42z"/>
	<path d="M295.76,80.35c-2.59,2.68-7.71,3.99-15.49,3.99c-7.78,0-12.9-1.31-15.49-3.99c-2.59-2.69-3.85-7.99-3.85-16.05
		c0-8.06,1.26-13.36,3.85-16.05c2.59-2.69,7.71-4.07,15.49-4.07c7.78,0,12.9,1.31,15.49,3.99c2.59,2.69,3.93,8.06,3.93,16.12
		C299.69,72.36,298.36,77.66,295.76,80.35z M275.93,57.55c-0.7,1.1-1.05,3.37-1.05,6.75s0.35,5.58,1.05,6.68
		c0.77,1.1,2.17,1.65,4.35,1.65c2.17,0,3.64-0.55,4.34-1.65c0.77-1.1,1.12-3.31,1.12-6.68s-0.35-5.65-1.12-6.75
		c-0.7-1.1-2.17-1.65-4.34-1.65C278.1,55.89,276.7,56.44,275.93,57.55z"/>
	<path d="M256.11,47.58c2.31,2.22,3.43,6.81,3.43,13.69v21.96c0,0.76-0.35,1.11-1.05,1.11h-11.84c-0.63,0-0.98-0.35-0.98-1.11v-17.3
		c0-1.81,0-3.13-0.07-3.96c0-1.74-0.28-3.96-0.77-4.52c-0.77-1.32-2.45-1.46-5.47-1.46h-3.22v27.24c0,0.76-0.35,1.11-1.05,1.11
		h-11.91c-0.63,0-0.98-0.35-0.98-1.11V46.54c0-0.9,0.35-0.97,0.98-1.11c3.43-0.83,9.67-1.25,18.85-1.25
		C249.1,44.18,253.79,45.29,256.11,47.58z"/>
	<path d="M174.43,48.18c2.52,2.69,3.79,8.06,3.79,16.12v2.21c0,1.38-0.56,1.86-1.96,1.86h-21.73c0,1.93,0.42,3.1,1.26,3.58
		c0.91,0.48,2.66,0.69,5.33,0.69h13.32c0.7,0,1.05,0.35,1.05,1.03v8.26c0,0.62-0.35,1.03-0.98,1.17c-3.43,0.83-8.41,1.24-15.07,1.24
		c-7.57,0-12.69-1.31-15.28-4c-2.59-2.69-3.85-8.06-3.85-16.05c0-8.06,1.26-13.36,3.85-16.05c2.59-2.69,7.71-4.07,15.28-4.07
		C166.93,44.18,171.98,45.49,174.43,48.18z M154.39,60.51h9.88c0-3.37-1.54-4.62-4.84-4.62C156.07,55.89,154.39,57.41,154.39,60.51z
		"/>
	<path class="st0" d="M130.53,28.96c0.7-0.21,1.05,0.21,1.05,1.12v14.1h5.61c0.84,0,1.26,0.35,1.26,1.05v7.85
		c0,0.77-0.42,1.12-1.26,1.12h-5.61v14.86c0,2.8,1.05,3.36,3.78,3.36h2.45c0.84,0,1.26,0.35,1.26,1.12v8.41
		c0,0.91-0.42,1.4-1.26,1.54c-3.01,0.56-5.68,0.84-7.85,0.84c-3.44,0-4.84-0.07-7.29-0.7c-3.36-1.05-4.7-3.5-4.98-9.39V54.2h-4.21
		c-0.84,0-1.26-0.35-1.26-1.12v-7.85c0-0.7,0.42-1.05,1.26-1.05h4.21V33.16c0-0.77,0.21-0.84,1.05-1.12L130.53,28.96z"/>
	<path class="st0" d="M173.99,48.18c2.52,2.69,3.79,8.06,3.79,16.12v2.21c0,1.38-0.56,1.86-1.96,1.86h-21.73
		c0,1.93,0.42,3.1,1.26,3.58c0.91,0.48,2.66,0.69,5.33,0.69h13.32c0.7,0,1.05,0.35,1.05,1.03v8.26c0,0.62-0.35,1.03-0.98,1.17
		c-3.43,0.83-8.41,1.24-15.07,1.24c-7.57,0-12.69-1.31-15.28-4c-2.59-2.69-3.85-8.06-3.85-16.05c0-8.06,1.26-13.36,3.85-16.05
		c2.59-2.69,7.71-4.07,15.28-4.07C166.49,44.18,171.53,45.49,173.99,48.18z M153.94,60.51h9.88c0-3.37-1.54-4.62-4.84-4.62
		C155.62,55.89,153.94,57.41,153.94,60.51z"/>
	<path class="st0" d="M192.58,28.9c0.7,0,1.05,0.35,1.05,1.12v27.54l8.69-12.69c0.35-0.49,0.84-0.7,1.47-0.7h12.83
		c1.05,0,1.26,0.42,0.63,1.33l-10.16,14.51l12.27,22.43c0.7,1.26,0.28,1.89-1.19,1.89h-12.48c-0.77,0-1.26-0.28-1.54-0.77
		l-10.51-20.46v20.11c0,0.77-0.35,1.12-1.05,1.12h-11.77c-0.7,0-1.05-0.35-1.05-1.12V30.02c0-0.77,0.35-1.12,1.05-1.12H192.58z"/>
	<g>
		<path d="M220.05,82.45l-12.27-22.43l10.16-14.51c0.63-0.91,0.42-1.33-0.63-1.33h-12.83c-0.63,0-1.12,0.21-1.47,0.7l-8.69,12.69
			v5.54l10.51,20.46c0.28,0.49,0.77,0.77,1.54,0.77h12.48C220.33,84.34,220.75,83.71,220.05,82.45z"/>
		<path class="st0" d="M219.46,82.45l-12.27-22.43l10.16-14.51c0.63-0.91,0.42-1.33-0.63-1.33H203.9c-0.63,0-1.12,0.21-1.47,0.7
			l-8.69,12.69v5.54l10.51,20.46c0.28,0.49,0.77,0.77,1.54,0.77h12.48C219.74,84.34,220.16,83.71,219.46,82.45z"/>
	</g>
	<path class="st0" d="M255.59,47.58c2.31,2.22,3.43,6.81,3.43,13.69v21.96c0,0.76-0.35,1.11-1.05,1.11h-11.84
		c-0.63,0-0.98-0.35-0.98-1.11v-17.3c0-1.81,0-3.13-0.07-3.96c0-1.74-0.28-3.96-0.77-4.52c-0.77-1.32-2.45-1.46-5.47-1.46h-3.22
		v27.24c0,0.76-0.35,1.11-1.05,1.11h-11.91c-0.63,0-0.98-0.35-0.98-1.11V46.54c0-0.9,0.35-0.97,0.98-1.11
		c3.43-0.83,9.67-1.25,18.85-1.25C248.58,44.18,253.28,45.29,255.59,47.58z"/>
	<path class="st0" d="M295.3,80.35c-2.59,2.68-7.71,3.99-15.49,3.99c-7.78,0-12.9-1.31-15.49-3.99c-2.59-2.69-3.85-7.99-3.85-16.05
		c0-8.06,1.26-13.36,3.85-16.05c2.59-2.69,7.71-4.07,15.49-4.07c7.78,0,12.9,1.31,15.49,3.99c2.59,2.69,3.93,8.06,3.93,16.12
		C299.23,72.36,297.89,77.66,295.3,80.35z M275.47,57.55c-0.7,1.1-1.05,3.37-1.05,6.75s0.35,5.58,1.05,6.68
		c0.77,1.1,2.17,1.65,4.35,1.65c2.17,0,3.64-0.55,4.34-1.65c0.77-1.1,1.12-3.31,1.12-6.68s-0.35-5.65-1.12-6.75
		c-0.7-1.1-2.17-1.65-4.34-1.65C277.64,55.89,276.24,56.44,275.47,57.55z"/>
	<path class="st0" d="M336.74,45.42c0.77,0.21,1.19,0.62,1.19,1.1v7.37c0,0.76-0.42,1.1-1.26,1.1h-12.4c-2.03,0-3.08,0.48-3.08,1.45
		v0.48c0,0.62,0.77,1.17,2.38,1.65l8.62,2.62c5.12,1.59,7.64,5.24,7.64,10.95v1.31c0,7.72-6.31,10.88-15.56,10.88
		c-6.17,0-11.56-0.21-16.19-0.69c-0.91,0-1.19-0.21-1.19-1.03v-8.06c0-0.76,0.42-1.1,1.26-1.1h15.77c1.89,0,2.38-0.28,2.38-1.1
		v-0.35c0-0.62-1.19-1.31-3.64-2.07l-7.43-2.27c-5.05-1.58-7.57-5.24-7.57-11.09v-1.17c0-7.44,5.33-11.23,17.59-11.23
		C329.31,44.18,333.17,44.59,336.74,45.42z"/>
	<path class="st0" d="M373.19,46.59c1.26,0.69,2.24,1.65,2.94,2.82c1.4,2.41,1.61,4.27,1.61,7.65v23.56c0,1.45-0.49,2.07-1.82,2.27
		c-5.05,0.96-10.44,1.45-16.26,1.45c-2.31,0-4.2-0.07-5.54-0.14c-2.59-0.07-6.45-0.55-8.2-1.59c-2.73-1.65-5.12-4.82-4.84-10.95
		c0.07-5.03,1.33-8.13,4.21-9.78c2.87-1.72,6.1-2.14,11.91-2.14l6.66-0.07v-0.34c0-2.27-1.4-3.45-4.21-3.45h-14.72
		c-0.63,0-0.91-0.35-0.91-1.03v-8.33c0-0.62,0.28-0.97,0.91-1.1c4.13-0.83,9.04-1.24,14.72-1.24
		C366.11,44.18,370.66,45.21,373.19,46.59z M363.87,67.53h-5.19c-3.15,0-3.93,0.89-3.93,3.1c0,2.21,0.84,2.89,4,2.89
		c2.03,0,3.78-0.14,5.12-0.48V67.53z"/>
	<g>
		<path d="M137.51,44.69h-1.52h-4.08h-13.88h-1.94h-2.26c-0.84,0-1.26,0.35-1.26,1.05v7.85c0,0.77,0.42,1.12,1.26,1.12h2.26h1.94
			h13.88h4.08h1.52c0.84,0,1.26-0.35,1.26-1.12v-7.85C138.78,45.04,138.36,44.69,137.51,44.69z"/>
		<path class="st0" d="M137.19,44.18h-1.52h-4.08h-13.88h-1.94h-2.26c-0.84,0-1.26,0.35-1.26,1.05v7.85c0,0.77,0.42,1.12,1.26,1.12
			h2.26h1.94h13.88h4.08h1.52c0.84,0,1.26-0.35,1.26-1.12v-7.85C138.45,44.53,138.03,44.18,137.19,44.18z"/>
	</g>
	<g>
		<circle class="st0" cx="378.46" cy="39.24" r="3.64"/>
		<g>
			<path class="st1" d="M376.07,41.55c0.28-0.02,0.46-0.08,0.55-0.18c0.09-0.1,0.13-0.29,0.13-0.57v-3.17c0-0.23-0.03-0.39-0.1-0.49
				c-0.07-0.1-0.2-0.16-0.39-0.18l-0.18-0.02V36.8h2.1c0.59,0,1.04,0.11,1.37,0.34c0.33,0.23,0.49,0.54,0.49,0.95
				c0,0.35-0.12,0.63-0.34,0.83c-0.23,0.2-0.56,0.34-0.99,0.41l1.47,1.8c0.1,0.12,0.2,0.22,0.29,0.29c0.09,0.07,0.23,0.11,0.41,0.13
				v0.14h-1.18l-1.76-2.28l-0.41,0.01v1.43c0,0.22,0.04,0.39,0.13,0.5c0.09,0.11,0.27,0.17,0.55,0.19v0.14h-2.11V41.55z
				 M377.5,39.14h0.09c1.09,0,1.64-0.35,1.64-1.05c0-0.67-0.41-1-1.24-1h-0.1c-0.16,0-0.27,0.02-0.32,0.06
				c-0.05,0.04-0.08,0.12-0.08,0.22V39.14z"/>
		</g>
	</g>
	<g>
		<path class="st0" d="M107.87,9.17H80.69c-23.64,0-42.81,19.17-42.81,42.81V99.9c0,2.3,1.87,4.17,4.17,4.17h38.93
			c2.53,0,4.58-2.05,4.58-4.58V45.47c0,0-9.31-0.06-9.97,7.55c-0.63,7.29-0.42,41.88-0.42,41.88H47.79V53.64
			c0-18.96,14.71-34.33,33.67-34.33h21.66v9.14H78.85c-10.44,0-21.95,10.78-21.95,22.26v36.94h9.88V54.44
			c0-11.17,5.76-15.84,14.51-15.84h25.71h1.18c2.24,0,4.05-1.81,4.05-4.05v-19.6v-1.41C112.24,11.12,110.29,9.17,107.87,9.17z"/>
		<path class="st0" d="M53,10.46c-4.99-1.29-9.9-1.29-9.9-1.29H15.82c-2.8,0-5.07,2.27-5.07,5.07v19.63c0,2.64,2.14,4.79,4.79,4.79
			h0h17.61l3.52-9.84H20.01V24.1v-4.79h23.1c0,0,3.21-3.14,4.37-4.08c1.53-1.24,6.47-4.51,6.47-4.51S53.13,10.49,53,10.46z"/>
	</g>
</g>
</svg>
