<svg id="Component_3_7" data-name="Component 3 – 7" xmlns="http://www.w3.org/2000/svg" width="157.888" height="22.697" viewBox="0 0 157.888 22.697">
  <g id="Group_141" data-name="Group 141" transform="translate(-106.528 -156.041)">
    <g id="Group_121" data-name="Group 121" transform="translate(178.759 158.977)">
      <path id="Path_178" data-name="Path 178" d="M213.562,164.177h-3.087a4.23,4.23,0,0,0-1.988.469,4.28,4.28,0,0,0-1.507,1.308,4.573,4.573,0,0,0-.8,1.906l-2.111,11.127h-4.356l2.108-11.954a8.126,8.126,0,0,1,1.088-2.891,8.9,8.9,0,0,1,2.019-2.277,9.223,9.223,0,0,1,2.714-1.5,9.553,9.553,0,0,1,3.208-.532h3.518Zm1.59-4.211" transform="translate(-199.717 -159.829)" fill="#db1a21"/>
    </g>
    <g id="Group_122" data-name="Group 122" transform="translate(241.543 158.977)">
      <path id="Path_179" data-name="Path 179" d="M294.562,164.177h-3.087a4.23,4.23,0,0,0-1.988.469,4.28,4.28,0,0,0-1.507,1.308,4.562,4.562,0,0,0-.8,1.906l-2.111,11.127h-4.356l2.108-11.954a8.127,8.127,0,0,1,1.088-2.891,8.911,8.911,0,0,1,2.018-2.277,9.239,9.239,0,0,1,2.715-1.5,9.553,9.553,0,0,1,3.208-.532h3.518Z" transform="translate(-280.717 -159.829)" fill="#414042"/>
    </g>
    <path id="Path_180" data-name="Path 180" d="M245.489,163.416a5.863,5.863,0,0,0-2.421-2.845,7.594,7.594,0,0,0-4.053-1.03,9.649,9.649,0,0,0-6.6,2.555l-.065.06-.044-.06a5.843,5.843,0,0,0-1.664-1.525,7.619,7.619,0,0,0-4.04-1.03,9.657,9.657,0,0,0-4.416,1.03,9.781,9.781,0,0,0-3.424,2.845,9.351,9.351,0,0,0-1.787,4.107l-2.011,11.406h4.222l1.965-11.145a5.249,5.249,0,0,1,.917-2.191,5.44,5.44,0,0,1,1.714-1.553,4.208,4.208,0,0,1,2.129-.581,3.376,3.376,0,0,1,1.98.581,3.272,3.272,0,0,1,1.208,1.553,3.971,3.971,0,0,1,.183,1.984l-2,11.352H231.5l2-11.352a5.135,5.135,0,0,1,.883-1.984,5.475,5.475,0,0,1,1.756-1.553,4.41,4.41,0,0,1,2.185-.581,3.2,3.2,0,0,1,1.925.581,3.254,3.254,0,0,1,1.166,1.553,4.156,4.156,0,0,1,.144,2.191l-1.965,11.145h4.221l2.011-11.406A7.318,7.318,0,0,0,245.489,163.416Z" transform="translate(-24.386 -0.787)" fill="#414042"/>
    <g id="Group_123" data-name="Group 123" transform="translate(143.544 158.789)">
      <path id="Path_181" data-name="Path 181" d="M168.592,172.745a9.8,9.8,0,0,1-1.688,1.4,7.9,7.9,0,0,1-1.823.878,5.975,5.975,0,0,1-1.865.3,4.391,4.391,0,0,1-4.275-2.9,5.642,5.642,0,0,1-.2-3.013,7.373,7.373,0,0,1,1.251-3.031,7.082,7.082,0,0,1,2.328-2.116,5.929,5.929,0,0,1,2.951-.771,4.683,4.683,0,0,1,1.8.359,5.922,5.922,0,0,1,1.587.968,4.748,4.748,0,0,1,1.075,1.292,11.981,11.981,0,0,1,1.008-1.794,12.167,12.167,0,0,1,1.549-1.822,6.153,6.153,0,0,0-2.306-1.944,9.724,9.724,0,0,0-4.455-.968,10.2,10.2,0,0,0-5,1.291,12.1,12.1,0,0,0-6.059,8.536,9.487,9.487,0,0,0,.333,5.021,7.167,7.167,0,0,0,2.716,3.514,7.85,7.85,0,0,0,4.543,1.291,12.334,12.334,0,0,0,7.815-2.924,7.989,7.989,0,0,1-.921-1.882A8.466,8.466,0,0,1,168.592,172.745Z" transform="translate(-154.284 -159.586)" fill="#db1a21"/>
    </g>
    <g id="Group_124" data-name="Group 124" transform="translate(222.012 158.731)">
      <path id="Path_182" data-name="Path 182" d="M268.726,159.6c-6.429-.891-12.992,4.72-13.2,11.314a7.962,7.962,0,0,0,6.7,8.327,11.022,11.022,0,0,0,7.672-1.684l-.236,1.339h4.222l1.619-9.182C276.383,164.71,273.571,160.276,268.726,159.6Zm-2.984,15.408c-4.124.761-6.965-2.689-5.5-6.678a7.185,7.185,0,0,1,5.24-4.455c4.125-.763,6.967,2.689,5.5,6.679A7.183,7.183,0,0,1,265.742,175.013Z" transform="translate(-255.519 -159.512)" fill="#414042"/>
    </g>
    <g id="Group_125" data-name="Group 125" transform="translate(159.154 158.731)">
      <path id="Path_183" data-name="Path 183" d="M187.63,159.6c-6.429-.891-12.992,4.72-13.2,11.314a7.962,7.962,0,0,0,6.7,8.327,11.021,11.021,0,0,0,7.672-1.684l-.236,1.339h4.221l1.619-9.182C195.288,164.71,192.475,160.276,187.63,159.6Zm-2.984,15.408c-4.124.761-6.965-2.689-5.5-6.678a7.183,7.183,0,0,1,5.239-4.455c4.125-.763,6.968,2.689,5.5,6.679A7.183,7.183,0,0,1,184.646,175.013Z" transform="translate(-174.423 -159.512)" fill="#db1a21"/>
    </g>
    <path id="Path_184" data-name="Path 184" d="M300.279,159.225l.467-2.646,4.686-.538-.518,2.936h2.51l-.877,4.324h-2.4l-1.609,9.125c-.329,1.865.148,2.619,1.547,2.619.717,0,.7-.215,1.611-.718l1.089,2.977a7.118,7.118,0,0,1-4.249,1.435c-3.724-.036-5.323-2.152-4.609-6.206l1.629-9.232Z" transform="translate(-43.008 0)" fill="#414042"/>
    <g id="Group_127" data-name="Group 127" transform="translate(106.528 158.667)">
      <path id="Path_185" data-name="Path 185" d="M139.624,162.144a16.445,16.445,0,0,1,6.335-.873c-.043-.032-.083-.066-.128-.1a8.506,8.506,0,0,0-2.352-1.125,9.64,9.64,0,0,0-2.862-.411,12.033,12.033,0,0,0-4.217.74,12.531,12.531,0,0,0-3.614,2.07,11.932,11.932,0,0,0-2.691,3.127,11.46,11.46,0,0,0-1.442,3.908,9.925,9.925,0,0,0,.035,3.922,7.322,7.322,0,0,0,4.34,5.251,9.725,9.725,0,0,0,3.939.754,10.688,10.688,0,0,0,6.737-2.358,10.3,10.3,0,0,0,2.339-2.688,14.513,14.513,0,0,0,1.413-4.2c.029-.165.064-.388.1-.672s.073-.572.1-.864.045-.539.062-.741h-8.885l-.6,3.429h4.923a8.66,8.66,0,0,1-.7,2.118,4.739,4.739,0,0,1-1.17,1.194,5.56,5.56,0,0,1-1.564.781,5.834,5.834,0,0,1-1.79.274,5.484,5.484,0,0,1-2.328-.48,4.806,4.806,0,0,1-1.729-1.316,4.882,4.882,0,0,1-.968-1.975,5.848,5.848,0,0,1-.052-2.427,7.4,7.4,0,0,1,.883-2.441,7.548,7.548,0,0,1,.769-1.088A11.79,11.79,0,0,1,139.624,162.144Z" transform="translate(-111.464 -159.476)" fill="#414042"/>
      <path id="Path_186" data-name="Path 186" d="M144.32,164.322a5.42,5.42,0,0,1,2.4.941A7.027,7.027,0,0,1,148,166.428l2.96-2.631A19.19,19.19,0,0,0,144.32,164.322Z" transform="translate(-115.027 -160.397)" fill="#414042"/>
      <g id="Group_126" data-name="Group 126">
        <path id="Path_187" data-name="Path 187" d="M114.681,162.092a3.52,3.52,0,0,0,.694,2.068,3.009,3.009,0,0,0,.2.237,2.086,2.086,0,0,1,.342-.46,2.879,2.879,0,0,1,1.153-.688,5.092,5.092,0,0,1,1.607-.233,4.654,4.654,0,0,1,1.562.26,3.915,3.915,0,0,1,1.318.783,5.193,5.193,0,0,1,1.022,1.291l3.056-2.528a7.448,7.448,0,0,0-1.219-1.356,7.282,7.282,0,0,0-1.556-1.049,9.038,9.038,0,0,0-3.4-.963,7.67,7.67,0,0,0-2.494.2,4.169,4.169,0,0,0-.886.333,2.472,2.472,0,0,0-1.367,1.693A2.544,2.544,0,0,0,114.681,162.092Z" transform="translate(-108.361 -159.429)" fill="#414042"/>
        <path id="Path_188" data-name="Path 188" d="M121.088,170.048a6.518,6.518,0,0,0-1.863-1.2,12.965,12.965,0,0,0-2.58-.8,11.086,11.086,0,0,1-1.388-.384,5.346,5.346,0,0,1-.6-.254,5.046,5.046,0,0,1-2.955-2.8,4.141,4.141,0,0,1-.178-2.451,7.108,7.108,0,0,0-1.219,1.338,6.031,6.031,0,0,0-.967,4.465,3.857,3.857,0,0,0,.838,1.717,4.972,4.972,0,0,0,1.7,1.264,12.928,12.928,0,0,0,2.541.865,9.118,9.118,0,0,1,1.267.288,6.512,6.512,0,0,1,1.026.413,3.306,3.306,0,0,1,.76.522,1.645,1.645,0,0,1,.433.659,1.618,1.618,0,0,1,.049.811,1.79,1.79,0,0,1-.567,1.031,3.275,3.275,0,0,1-1.177.674,4.8,4.8,0,0,1-1.569.247,5.638,5.638,0,0,1-2.78-.674,6.127,6.127,0,0,1-2.23-2.542l-3.1,2.94a7.832,7.832,0,0,0,1.684,2.061,6.669,6.669,0,0,0,2.382,1.291,10.579,10.579,0,0,0,3.178.439,10.415,10.415,0,0,0,3.976-.728,7.625,7.625,0,0,0,2.954-2.1,6.832,6.832,0,0,0,1.52-3.325,4.442,4.442,0,0,0-.091-2.129A3.82,3.82,0,0,0,121.088,170.048Z" transform="translate(-106.528 -160.046)" fill="#414042"/>
      </g>
    </g>
  </g>
</svg>
